<svg xmlns="http://www.w3.org/2000/svg" xmlns:svg="http://www.w3.org/2000/svg" xmlns:xlink="http://www.w3.org/1999/xlink" id="svg3671" x="0" y="0" enable-background="new 0 0 1000 700.2" version="1.1" viewBox="0 0 1000 700.2" xml:space="preserve"><style type="text/css">.st0{fill:#7d7d7d}.st1{fill:#fff}</style><g id="layer1" transform="translate(124.99999,-182.24065)"><g id="g3003" transform="matrix(14.230769,0,0,-14.230769,291.22346,259.00334)"><path id="path3005" d="M0,0c2.3,2.4,5.4,3.8,8.9,3.8c4.6,0,8.7-2.6,10.8-6.4 c1.9,0.8,3.9,1.3,6.1,1.3C34.2-1.3,41-8.1,41-16.6c0-8.4-6.8-15.3-15.1-15.3c-1,0-2,0.1-3,0.3c-1.9-3.4-5.5-5.7-9.7-5.7 c-1.7,0-3.4,0.4-4.8,1.1C6.5-40.6,2-43.8-3.2-43.8c-5.4,0-10.1,3.4-11.8,8.3c-0.8-0.2-1.6-0.3-2.4-0.3c-6.5,0-11.7,5.3-11.7,11.8 c0,4.4,2.4,8.2,5.9,10.3c-0.7,1.7-1.1,3.5-1.1,5.4c0,7.5,6.1,13.6,13.6,13.6C-6.4,5.4-2.5,3.3,0,0" class="st0"/></g><g id="g3007" transform="matrix(14.230769,0,0,-14.230769,20.195613,545.3506)"><path id="path3009" d="M0,0c0-0.1,0-0.1,0-0.2c0.1-0.1,0.3-0.2,0.4-0.2 c0.7-0.4,1.4-0.5,2.1-0.5c1.4,0,2.3,0.8,2.3,2v0c0,1.1-1,1.6-2,1.9L2.8,3C2.1,3.3,1.5,3.5,1.5,3.9v0c0,0.4,0.4,0.7,0.9,0.7 c0.6,0,1.4-0.2,1.8-0.5c0,0,0.1-0.1,0.2,0c0,0.1,0.3,0.7,0.3,0.8c0,0.1,0,0.1-0.1,0.2C4.1,5.5,3.3,5.7,2.6,5.7l-0.1,0 c-1.3,0-2.2-0.8-2.2-1.9v0c0-1.2,1-1.6,2-1.9l0.2,0C3,1.6,3.6,1.5,3.6,1v0c0-0.4-0.4-0.8-1-0.8c-0.2,0-1,0-1.9,0.5 C0.6,0.8,0.6,0.8,0.5,0.9c0,0-0.1,0.1-0.2-0.1L0,0z" class="st1"/></g><g id="g3011" transform="matrix(14.230769,0,0,-14.230769,320.19446,545.3506)"><path id="path3013" d="M0,0c0-0.1,0-0.1,0-0.2c0.1-0.1,0.3-0.2,0.4-0.2 c0.7-0.4,1.4-0.5,2.1-0.5c1.4,0,2.3,0.8,2.3,2v0c0,1.1-1,1.6-2,1.9L2.8,3C2.1,3.3,1.5,3.5,1.5,3.9v0c0,0.4,0.4,0.7,0.9,0.7 c0.6,0,1.4-0.2,1.8-0.5c0,0,0.1-0.1,0.2,0c0,0.1,0.3,0.7,0.3,0.8c0,0.1,0,0.1-0.1,0.2C4.1,5.5,3.3,5.7,2.6,5.7l-0.1,0 c-1.3,0-2.2-0.8-2.2-1.9v0c0-1.2,1-1.6,2-1.9l0.2,0C3,1.6,3.6,1.5,3.6,1v0c0-0.4-0.4-0.8-1-0.8c-0.2,0-1,0-1.9,0.5 C0.6,0.8,0.6,0.8,0.5,0.9c0,0-0.1,0.1-0.2-0.1L0,0z" class="st1"/></g><g id="g3015" transform="matrix(14.230769,0,0,-14.230769,524.9952,510.98046)"><path id="path3017" d="M0,0c0-0.7-0.1-1.2-0.4-1.6C-0.6-2-1-2.2-1.6-2.2 c-0.5,0-0.9,0.2-1.2,0.6C-3-1.2-3.1-0.7-3.1,0c0,0.7,0.1,1.2,0.4,1.6C-2.5,2-2.1,2.2-1.6,2.2C-1,2.2-0.6,2-0.4,1.6 C-0.1,1.2,0,0.7,0,0 M1.2,1.3C1.1,1.7,0.9,2,0.7,2.3C0.4,2.6,0.1,2.9-0.3,3c-0.4,0.2-0.8,0.3-1.3,0.3C-2,3.3-2.5,3.2-2.8,3 c-0.4-0.2-0.7-0.4-0.9-0.7C-4,2-4.2,1.7-4.3,1.3C-4.4,0.9-4.5,0.5-4.5,0s0.1-0.9,0.2-1.3C-4.2-1.7-4-2-3.8-2.3 C-3.5-2.6-3.2-2.9-2.8-3C-2.5-3.2-2-3.3-1.6-3.3c0.5,0,0.9,0.1,1.3,0.3c0.4,0.2,0.7,0.4,0.9,0.7c0.2,0.3,0.4,0.6,0.5,1 C1.3-0.9,1.4-0.5,1.4,0S1.3,0.9,1.2,1.3" class="st1"/></g><g id="g3019" transform="matrix(14.230769,0,0,-14.230769,682.5683,539.71093)"><path id="path3021" d="M0,0c0,0.1-0.2,0.1-0.2,0.1C-0.3,0-0.5-0.1-0.7-0.1 c-0.2,0-0.4,0-0.7,0c-0.6,0-1,0.2-1.4,0.5C-3.1,0.7-3.3,1.3-3.3,2c0,0.7,0.2,1.2,0.5,1.6C-2.5,4-2.1,4.2-1.5,4.2 C-1,4.2-0.6,4.1-0.2,4c0,0,0.1,0,0.1,0.1C0,4.4,0.1,4.6,0.2,4.9c0,0.1,0,0.1-0.1,0.1C0,5.1-0.4,5.2-0.6,5.3 c-0.3,0-0.6,0.1-0.9,0.1c-0.5,0-1-0.1-1.3-0.3c-0.4-0.2-0.7-0.4-1-0.7s-0.5-0.6-0.6-1C-4.6,2.9-4.6,2.5-4.6,2c0-1,0.3-1.8,0.8-2.4 C-3.3-1-2.5-1.3-1.5-1.3c0.6,0,1.2,0.1,1.7,0.3c0,0,0.1,0,0,0.1L0,0z" class="st1"/></g><g id="g3023" transform="matrix(14.230769,0,0,-14.230769,712.4969,501.47858)"><path id="path3025" d="M0,0c0.1,0.4,0.2,0.7,0.3,1C0.6,1.3,1,1.6,1.5,1.6 S2.4,1.3,2.6,1c0.2-0.3,0.2-0.6,0.3-1H0z M4,0.9c-0.1,0.4-0.4,0.8-0.5,1C3.3,2.1,3,2.3,2.8,2.4C2.4,2.5,2,2.6,1.6,2.6 c-0.5,0-1-0.1-1.3-0.3C-0.1,2.2-0.4,2-0.7,1.7C-0.9,1.4-1.1,1-1.2,0.6c-0.1-0.4-0.2-0.8-0.2-1.3c0-0.5,0.1-0.9,0.2-1.3 c0.1-0.4,0.3-0.7,0.6-1c0.3-0.3,0.6-0.5,1-0.7C0.8-3.9,1.3-4,1.9-4c1.2,0,1.8,0.3,2,0.4c0,0,0.1,0.1,0,0.2L3.7-2.6 c0,0.1-0.2,0.1-0.2,0.1C3.2-2.6,2.8-2.8,1.8-2.8c-0.6,0-1.1,0.2-1.4,0.5C0.2-2.1,0-1.6,0-1l4.1,0c0,0,0.1,0,0.1,0.1 C4.2-0.9,4.3-0.1,4,0.9" class="st1"/></g><g id="g3027" transform="matrix(14.230769,0,0,-14.230769,248.76169,501.47858)"><path id="path3029" d="M0,0c0.1,0.4,0.2,0.7,0.3,1C0.6,1.3,1,1.6,1.5,1.6 S2.4,1.3,2.6,1c0.2-0.3,0.2-0.6,0.3-1H0z M4,0.9c-0.1,0.4-0.4,0.8-0.5,1C3.3,2.1,3,2.3,2.8,2.4C2.4,2.5,2,2.6,1.6,2.6 c-0.5,0-1-0.1-1.3-0.3C-0.1,2.2-0.4,2-0.7,1.7C-0.9,1.4-1.1,1-1.2,0.6c-0.1-0.4-0.2-0.8-0.2-1.3c0-0.5,0.1-0.9,0.2-1.3 c0.1-0.4,0.3-0.7,0.6-1c0.3-0.3,0.6-0.5,1-0.7C0.8-3.9,1.3-4,1.9-4c1.2,0,1.8,0.3,2,0.4c0,0,0.1,0.1,0,0.2L3.7-2.6 c0,0.1-0.2,0.1-0.2,0.1C3.2-2.6,2.8-2.8,1.8-2.8c-0.6,0-1.1,0.2-1.4,0.5C0.2-2.1,0-1.6,0-1l4.1,0c0,0,0.1,0,0.1,0.1 C4.2-0.9,4.3-0.1,4,0.9" class="st1"/></g><g id="g3031" transform="matrix(14.230769,0,0,-14.230769,123.60065,539.3936)"><path id="path3033" d="M0,0c-0.2,0.1-0.2,0.2-0.2,0.2c-0.1,0.1-0.1,0.3-0.1,0.5 c0,0.4,0.1,0.6,0.4,0.8c0,0,0.3,0.3,1.2,0.3c0.6,0,1.1-0.1,1.1-0.1v-1.9h0c0,0-0.5-0.1-1.1-0.1C0.4-0.3,0,0,0,0 M1.6,2.9 c-0.2,0-0.4,0-0.6,0c-0.3,0-0.7,0-1-0.1c-0.3-0.1-0.6-0.2-0.9-0.4C-1.1,2.2-1.3,2-1.5,1.7s-0.2-0.6-0.2-0.9c0-0.4,0.1-0.7,0.2-0.9 C-1.4-0.4-1.2-0.7-1-0.8C-0.7-1-0.5-1.1-0.1-1.2c0.3-0.1,0.7-0.1,1.1-0.1c0.4,0,0.8,0,1.2,0.1C2.6-1.1,3.1-1,3.2-1 c0.1,0,0.3,0.1,0.3,0.1c0.1,0,0.1,0.1,0.1,0.1l0,3.7c0,0.8-0.2,1.4-0.6,1.8C2.5,5.1,1.9,5.3,1.1,5.3c-0.3,0-0.8,0-1.1-0.1 c0,0-0.9-0.2-1.3-0.5c0,0-0.1-0.1,0-0.2L-1,3.8c0-0.1,0.1-0.1,0.1-0.1s0,0,0.1,0C0,4.2,0.9,4.2,0.9,4.2c0.4,0,0.8-0.1,1-0.3 c0.2-0.2,0.3-0.4,0.3-1V2.8C1.9,2.8,1.6,2.9,1.6,2.9" class="st1"/></g><g id="g3035" transform="matrix(14.230769,0,0,-14.230769,613.6685,468.87159)"><path id="path3037" d="M0,0c0,0.1,0,0.1-0.1,0.1c-0.1,0-0.4,0.1-0.7,0.1 c-0.5,0-0.8-0.1-1-0.2C-2,0-2.3-0.2-2.5-0.4v0.5c0,0.1,0,0.1-0.1,0.1h-1c-0.1,0-0.1-0.1-0.1-0.1V-6c0-0.1,0.1-0.1,0.1-0.1h1.1 c0.1,0,0.1,0.1,0.1,0.1v3c0,0.4,0,0.8,0.1,1.1C-2.2-1.6-2.1-1.4-2-1.3C-1.8-1.1-1.6-1-1.4-1C-1.3-0.9-1-0.9-0.9-0.9 C-0.7-0.9-0.5-1-0.5-1c0.1,0,0.1,0,0.1,0.1C-0.2-0.7,0-0.1,0,0" class="st1"/></g><g id="g3039" transform="matrix(14.230769,0,0,-14.230769,470.8741,428.84334)"><path id="path3041" d="M0,0c-0.1,0-0.2,0.1-0.4,0.1c-0.2,0-0.3,0-0.6,0 c-0.7,0-1.3-0.2-1.7-0.6c-0.4-0.4-0.7-1-0.8-1.8l0-0.3h-0.9c0,0-0.1,0-0.1-0.1l-0.2-0.8c0-0.1,0-0.1,0.1-0.1h0.9l-0.9-5.1 c-0.1-0.4-0.2-0.7-0.2-1C-5-10-5.1-10.2-5.2-10.4c-0.1-0.1-0.2-0.2-0.4-0.3c-0.1,0-0.3-0.1-0.5-0.1c-0.1,0-0.2,0-0.3,0 c-0.1,0-0.1,0-0.2,0.1c0,0-0.1,0-0.1-0.1c0-0.1-0.3-0.7-0.3-0.8c0-0.1,0-0.1,0.1-0.2c0.1,0,0.2-0.1,0.4-0.1 c0.2-0.1,0.4-0.1,0.6-0.1c0.4,0,0.7,0.1,1,0.2c0.3,0.1,0.5,0.3,0.8,0.5c0.2,0.3,0.4,0.5,0.5,0.9c0.1,0.4,0.3,0.8,0.4,1.4l0.9,5.2 h1.3c0,0,0.1,0,0.1,0.1l0.2,0.8c0,0.1,0,0.1-0.1,0.1h-1.3c0,0,0.1,0.5,0.2,0.9C-2-1.5-1.8-1.4-1.7-1.2C-1.6-1.1-1.5-1.1-1.4-1 C-1.3-1-1.1-1-1-1c0.1,0,0.2,0,0.3,0c0.1,0,0.2,0,0.2-0.1c0.1,0,0.2,0,0.2,0.1l0.3,0.9C0.1,0,0,0,0,0" class="st1"/></g><g id="g3043" transform="matrix(14.230769,0,0,-14.230769,212.19431,554.07548)"><path id="path3045" d="M0,0c0-0.1,0-0.1-0.1-0.1h-1.1c-0.1,0-0.1,0.1-0.1,0.1v8.7 c0,0.1,0,0.1,0.1,0.1h1.1C0,8.8,0,8.8,0,8.7V0z" class="st1"/></g></g></svg>